<svg width="85" height="21" viewBox="0 0 85 21" fill="none" xmlns="http://www.w3.org/2000/svg">
<path d="M80.1118 5.628C82.5478 5.628 84.3678 7.504 84.3678 11.816C84.3678 17.108 81.7638 20.132 78.3478 20.132C77.5078 20.132 76.4158 19.768 75.6598 18.788L74.8478 19.936H73.0278V5.684C73.0278 4.06 72.9158 2.772 72.3838 1.568C73.8118 1.092 75.1558 0.587999 76.4998 0V7.756C77.2838 6.3 78.6838 5.628 80.1118 5.628ZM78.4598 18.9C79.5798 18.9 80.6998 17.752 80.6998 13.3C80.6998 9.268 79.8038 7.896 78.3198 7.868C77.7038 7.868 77.1158 8.092 76.4998 8.68V16.576C76.4998 18.256 77.6478 18.9 78.4598 18.9Z" fill="#7F3332"/>
<path d="M71.9691 19.936H68.4411C68.1891 19.46 67.9651 18.536 67.8811 17.808C66.9571 19.404 65.5291 20.188 64.0451 20.188C62.0291 20.188 60.9091 18.872 60.9091 16.24V11.284C60.9091 9.85601 60.8811 8.68001 60.2651 7.16801C61.6651 6.69201 63.0371 6.21601 64.3811 5.60001V15.708C64.3811 16.8 64.6051 17.892 65.9771 17.892C66.5371 17.892 67.2091 17.696 67.8531 16.968V11.256C67.8531 9.85601 67.8251 8.34401 67.3491 7.14001C68.7211 6.69201 69.9811 6.21601 71.3251 5.57201V15.652C71.3251 17.276 71.4091 18.312 71.9691 19.936Z" fill="#7F3332"/>
<path d="M58.7039 6.412V15.26C58.7039 16.772 58.8159 18.312 59.4319 19.936H54.5319C55.1199 18.312 55.1759 16.772 55.1759 15.26V10.892H50.2199V15.26C50.2199 16.772 50.2759 18.312 50.9199 19.936H45.9639C46.5239 18.312 46.7199 16.772 46.7199 15.26V6.412C46.7199 4.9 46.5519 3.36 45.9639 1.736H50.8919C50.2759 3.36 50.2199 4.9 50.2199 6.412V9.94H55.1759V6.412C55.1759 4.9 55.1199 3.36 54.5319 1.736H59.4319C58.8439 3.36 58.7039 4.9 58.7039 6.412Z" fill="#7F3332"/>
<path d="M38.9775 20.272C35.6175 20.272 33.2095 17.36 33.2095 12.964C33.2095 8.40001 35.6455 5.54401 39.2295 5.54401C42.5615 5.54401 44.9975 8.42801 44.9975 12.88C44.9975 17.416 42.5615 20.272 38.9775 20.272ZM39.3695 19.012C40.7135 19.012 41.2735 17.22 41.2735 14.056C41.2735 10.388 40.5175 6.80401 38.8375 6.80401C37.4655 6.80401 36.9335 8.68001 36.9335 11.788C36.9335 15.456 37.6895 19.012 39.3695 19.012Z" fill="#7F3332"/>
<path d="M31.9049 15.26C31.9049 17.08 32.1009 18.312 32.6609 19.936H28.7969C28.5169 18.704 28.4329 17.08 28.4329 15.344V10.08C28.4329 8.51201 27.9569 7.89601 26.9209 7.89601C26.3609 7.89601 25.6329 8.14801 24.9329 8.98801V15.848C24.9329 17.416 24.9609 18.452 25.5769 19.936H20.8169C21.4049 18.452 21.4609 17.416 21.4609 15.848V11.116C21.4609 9.54801 21.4329 8.40001 20.8169 7.14001C21.9929 6.63601 23.1969 6.10401 24.3169 5.54401C24.6249 6.21601 24.9049 7.33601 24.9329 8.17601C25.8569 6.41201 27.3129 5.60001 28.8529 5.60001C30.7569 5.60001 31.9049 6.91601 31.9049 9.54801V15.26Z" fill="#7F3332"/>
<path d="M17.4449 4.592C16.1009 4.592 15.1769 3.584 15.1769 2.352C15.1769 1.092 16.1009 0.0839996 17.4449 0.0839996C18.8169 0.0839996 19.7689 1.092 19.7689 2.352C19.7689 3.584 18.8169 4.592 17.4449 4.592ZM15.1489 19.936C15.7369 18.312 15.7929 17.528 15.7929 16.016V11.256C15.7929 9.828 15.7649 8.428 15.1489 7.14C16.5769 6.692 17.8929 6.216 19.2369 5.572V16.016C19.2369 17.528 19.2929 18.312 19.8809 19.936H15.1489Z" fill="#7F3332"/>
<path d="M11.228 1.736H14.84C13.916 2.8 13.272 4.228 12.684 6.076L8.204 20.076H6.496L2.016 6.076C1.456 4.368 0.924 2.884 0 1.736H5.964C5.768 2.1 5.656 2.8 5.656 3.612C5.656 4.368 5.74 5.18 5.936 5.936L8.596 15.54L11.34 5.936C11.536 5.264 11.62 4.508 11.62 3.808C11.62 2.94 11.48 2.128 11.228 1.736Z" fill="#7F3332"/>
</svg>
