<svg width="85" height="21" viewBox="0 0 85 21" fill="none" xmlns="http://www.w3.org/2000/svg">
<path d="M80.112 5.628C82.548 5.628 84.368 7.504 84.368 11.816C84.368 17.108 81.764 20.132 78.348 20.132C77.508 20.132 76.416 19.768 75.66 18.788L74.848 19.936H73.028V5.684C73.028 4.06 72.916 2.772 72.384 1.568C73.812 1.092 75.156 0.587999 76.5 0V7.756C77.284 6.3 78.684 5.628 80.112 5.628ZM78.46 18.9C79.58 18.9 80.7 17.752 80.7 13.3C80.7 9.268 79.804 7.896 78.32 7.868C77.704 7.868 77.116 8.092 76.5 8.68V16.576C76.5 18.256 77.648 18.9 78.46 18.9Z" fill="white"/>
<path d="M71.969 19.936H68.441C68.189 19.46 67.965 18.536 67.881 17.808C66.957 19.404 65.529 20.188 64.045 20.188C62.029 20.188 60.909 18.872 60.909 16.24V11.284C60.909 9.856 60.881 8.68 60.265 7.168C61.665 6.692 63.037 6.216 64.381 5.6V15.708C64.381 16.8 64.605 17.892 65.977 17.892C66.537 17.892 67.209 17.696 67.853 16.968V11.256C67.853 9.856 67.825 8.344 67.349 7.14C68.721 6.692 69.981 6.216 71.325 5.572V15.652C71.325 17.276 71.409 18.312 71.969 19.936Z" fill="white"/>
<path d="M58.7037 6.412V15.26C58.7037 16.772 58.8157 18.312 59.4317 19.936H54.5317C55.1197 18.312 55.1757 16.772 55.1757 15.26V10.892H50.2197V15.26C50.2197 16.772 50.2757 18.312 50.9197 19.936H45.9637C46.5237 18.312 46.7197 16.772 46.7197 15.26V6.412C46.7197 4.9 46.5517 3.36 45.9637 1.736H50.8917C50.2757 3.36 50.2197 4.9 50.2197 6.412V9.94H55.1757V6.412C55.1757 4.9 55.1197 3.36 54.5317 1.736H59.4317C58.8437 3.36 58.7037 4.9 58.7037 6.412Z" fill="white"/>
<path d="M38.9774 20.272C35.6174 20.272 33.2094 17.36 33.2094 12.964C33.2094 8.4 35.6454 5.544 39.2294 5.544C42.5614 5.544 44.9974 8.428 44.9974 12.88C44.9974 17.416 42.5614 20.272 38.9774 20.272ZM39.3694 19.012C40.7134 19.012 41.2733 17.22 41.2733 14.056C41.2733 10.388 40.5173 6.804 38.8373 6.804C37.4653 6.804 36.9333 8.68 36.9333 11.788C36.9333 15.456 37.6894 19.012 39.3694 19.012Z" fill="white"/>
<path d="M31.9049 15.26C31.9049 17.08 32.1009 18.312 32.6609 19.936H28.7969C28.5169 18.704 28.4329 17.08 28.4329 15.344V10.08C28.4329 8.512 27.9569 7.896 26.9209 7.896C26.3609 7.896 25.6329 8.148 24.9329 8.988V15.848C24.9329 17.416 24.9609 18.452 25.5769 19.936H20.8169C21.4049 18.452 21.4609 17.416 21.4609 15.848V11.116C21.4609 9.548 21.4329 8.4 20.8169 7.14C21.9929 6.636 23.1969 6.104 24.3169 5.544C24.6249 6.216 24.9049 7.336 24.9329 8.176C25.8569 6.412 27.3129 5.6 28.8529 5.6C30.7569 5.6 31.9049 6.916 31.9049 9.548V15.26Z" fill="white"/>
<path d="M17.4452 4.592C16.1012 4.592 15.1772 3.584 15.1772 2.352C15.1772 1.092 16.1012 0.0839996 17.4452 0.0839996C18.8172 0.0839996 19.7692 1.092 19.7692 2.352C19.7692 3.584 18.8172 4.592 17.4452 4.592ZM15.1492 19.936C15.7372 18.312 15.7932 17.528 15.7932 16.016V11.256C15.7932 9.828 15.7652 8.428 15.1492 7.14C16.5772 6.692 17.8932 6.216 19.2372 5.572V16.016C19.2372 17.528 19.2932 18.312 19.8812 19.936H15.1492Z" fill="white"/>
<path d="M11.228 1.736H14.84C13.916 2.8 13.272 4.228 12.684 6.076L8.204 20.076H6.496L2.016 6.076C1.456 4.368 0.924 2.884 0 1.736H5.964C5.768 2.1 5.656 2.8 5.656 3.612C5.656 4.368 5.74 5.18 5.936 5.936L8.596 15.54L11.34 5.936C11.536 5.264 11.62 4.508 11.62 3.808C11.62 2.94 11.48 2.128 11.228 1.736Z" fill="white"/>
</svg>
